<svg xmlns:inkscape="http://www.inkscape.org/namespaces/inkscape" xmlns:sodipodi="http://sodipodi.sourceforge.net/DTD/sodipodi-0.dtd" xmlns="http://www.w3.org/2000/svg" xmlns:svg="http://www.w3.org/2000/svg" version="1.0" width="255.91969pt" height="252.23772pt" viewBox="0 0 255.91969 252.23772" preserveAspectRatio="xMidYMid meet" id="svg16" sodipodi:docname="7fbf0cbb5dddff5375ff26714e9e09e9.svg">
  <defs id="defs20"/>
  <sodipodi:namedview id="namedview18" pagecolor="#07ccef" bordercolor="#666666" borderopacity="1.0" inkscape:pageshadow="2" inkscape:pageopacity="0.0" inkscape:pagecheckerboard="0" inkscape:document-units="pt"/>
  <metadata id="metadata2">
</metadata>
  <g transform="matrix(0.1,0,0,-0.1,-123.05618,302.075)" fill="#07ccef" stroke="none" id="g14">
    <path d="m 2192,3008 c -7,-7 -12,-40 -12,-79 v -67 l -67,-7 c -123,-13 -258,-70 -333,-140 -19,-18 -42,-25 -100,-30 -147,-14 -292,-63 -369,-124 -50,-40 -90,-114 -75,-138 21,-34 51,-27 79,16 54,86 172,139 365,162 102,12 104,13 173,65 38,29 94,62 125,73 64,25 182,44 217,35 13,-3 33,-1 44,6 18,9 21,20 21,85 v 75 h 250 250 v -74 c 0,-49 4,-78 13,-83 6,-4 47,-8 89,-10 136,-3 244,-41 344,-121 46,-36 57,-40 146,-51 179,-21 293,-73 351,-158 29,-43 53,-53 75,-31 19,19 14,40 -18,91 -56,89 -197,155 -380,178 -74,9 -100,16 -120,34 -78,72 -217,128 -348,140 l -72,8 v 66 c 0,39 -5,72 -12,79 -17,17 -619,17 -636,0 z" id="path4"/>
    <path d="m 2325,2226 c -12,-8 -21,-35 -27,-76 -17,-126 -86,-229 -184,-275 -48,-23 -55,-29 -52,-52 5,-44 28,-49 91,-20 111,51 191,163 222,316 16,74 11,103 -19,114 -8,3 -22,0 -31,-7 z" id="path6"/>
    <path d="m 2662,2233 c -28,-10 -33,-41 -16,-119 30,-149 110,-260 221,-311 63,-29 86,-24 91,20 3,23 -4,29 -52,52 -92,44 -168,150 -181,255 -3,25 -8,55 -11,67 -5,24 -32,43 -52,36 z" id="path8"/>
    <path d="m 2481,1726 c -8,-9 -11,-102 -9,-321 3,-281 5,-309 21,-319 12,-8 22,-8 35,0 15,10 17,38 20,319 2,318 0,335 -38,335 -10,0 -23,-6 -29,-14 z" id="path10"/>
    <path d="m 1475,1534 c -33,-18 -96,-45 -140,-60 -44,-15 -86,-31 -92,-37 -18,-13 -16,-42 3,-58 19,-16 70,-4 193,46 46,19 87,33 91,30 4,-2 12,-30 19,-62 21,-95 80,-272 122,-363 34,-76 41,-106 68,-293 16,-114 35,-214 41,-222 18,-22 1441,-22 1459,-1 7,8 30,108 51,223 33,170 47,224 79,293 46,99 80,198 114,328 13,50 26,94 29,97 2,3 47,-14 98,-37 104,-45 156,-53 174,-25 17,27 -2,46 -79,76 -38,15 -101,44 -140,64 -79,42 -128,48 -145,17 -13,-25 -87,-63 -165,-85 -33,-10 -64,-21 -70,-27 -5,-5 -10,-32 -10,-61 0,-61 -26,-120 -85,-191 -41,-50 -49,-73 -28,-94 22,-22 46,-12 87,36 51,58 101,156 108,211 5,34 10,42 32,48 14,3 49,16 77,28 l 52,23 -15,-57 c -27,-107 -76,-246 -113,-321 -30,-61 -43,-109 -70,-255 -18,-99 -37,-190 -41,-202 l -9,-23 h -309 -310 l -3,96 c -2,79 -6,99 -20,108 -13,8 -23,8 -35,0 -15,-9 -19,-29 -21,-108 l -3,-96 -312,2 -312,3 -30,205 c -27,178 -35,213 -64,269 -32,62 -102,262 -116,330 -6,30 -5,33 11,27 10,-4 39,-14 65,-22 44,-15 47,-18 52,-56 7,-54 57,-152 108,-210 41,-48 65,-58 87,-36 20,20 14,44 -24,90 -59,69 -96,155 -89,204 7,50 6,51 -109,89 -64,21 -99,39 -122,62 -41,41 -62,40 -139,-3 z" id="path12"/>
  </g>
</svg>