<svg xmlns="http://www.w3.org/2000/svg" x="0px" y="0px" width="100" height="100" viewBox="0,0,256,256"
style="fill:#228BE6;">
<g fill="#3be9ff" fill-rule="nonzero" stroke="none" stroke-width="1" stroke-linecap="butt" stroke-linejoin="miter" stroke-miterlimit="10" stroke-dasharray="" stroke-dashoffset="0" font-family="none" font-weight="none" font-size="none" text-anchor="none" style="mix-blend-mode: normal"><g transform="scale(5.33333,5.33333)"><path d="M23.991,47.005c8.836,0 16.008,0.225 16.008,0.501c0,0.276 -7.172,0.501 -16.008,0.501c-8.836,0 -16.008,-0.225 -16.008,-0.501c0,-0.276 7.172,-0.501 16.008,-0.501zM3.983,41.658v-35.319c0,-1.291 1.049,-2.34 2.34,-2.34h35.321c1.291,0 2.34,1.049 2.34,2.34v35.319c0,1.291 -1.049,2.34 -2.34,2.34h-35.321c-1.29,0 -2.34,-1.049 -2.34,-2.34zM29.998,28.998l-0.004,-7.976l-1.001,-0.504l0.005,7.48c0,4.623 -3.491,8.431 -7.972,8.943c0.317,0.039 0.641,0.057 0.971,0.057c4.414,0 8.001,-3.583 8.001,-8zM27.998,27.998l-0.004,-9.385c1.781,1.463 3.939,2.385 6.001,2.385v-4c-1.169,0 -2.691,-0.681 -3.983,-1.943c-1.288,-1.259 -2.017,-3.769 -2.017,-5.057h-4l0.003,18.001c0,2.207 -1.793,3.999 -4.001,3.999c-2.209,0 -4.001,-1.792 -4.001,-4c0,-2.207 1.792,-4 4.001,-4v-4c-4.416,0 -8.001,3.584 -8.001,8c0,4.417 3.585,8 8.001,8c4.414,0 8.001,-3.583 8.001,-8zM17.995,28.998c0,-2.207 1.792,-4 4.001,-4v-4c-0.339,0 -0.673,0.021 -1.001,0.063l0.001,2.937c0,0.552 -0.449,1 -1,1c-1.657,0 -3.001,1.347 -3.001,3c0,1.013 0.501,1.909 1.272,2.452c-0.176,-0.449 -0.272,-0.939 -0.272,-1.452zM35.995,21.998v-4c-0.312,0 -0.649,-0.048 -1,-0.143v3.143c0,0.36 -0.191,0.675 -0.475,0.851c0.493,0.098 0.986,0.149 1.475,0.149zM29.995,10.998h-0.879c0.237,1.136 0.809,2.577 1.595,3.343c0.087,0.087 0.175,0.168 0.263,0.247c-0.635,-1.238 -0.979,-2.703 -0.979,-3.59zM7.923,7.934c2.133,-0.213 5.756,-0.895 5.713,-1.348c-0.059,-0.58 -4.799,-0.615 -6.709,-0.576c-0.55,0.039 -0.969,0.511 -0.934,1.056c0,0.019 -0.004,0.916 -0.003,0.933c-0.033,2.013 0.024,5.591 0.587,5.647c0.452,0.044 1.133,-3.579 1.346,-5.712z"></path></g></g>
</svg>